# xmcd
#
# Track frame offsets: 
#        150
#        15987
#        31272
#        57292
#        73157
#        91560
#        118570
#        134877
#        151285
#        174547
#
# Disc length: 2560 seconds
#
# Revision: 8
# Processed by: cddbd v1.5.2PL0 Copyright (c) Steve Scherf et al.
# Submitted via: ExactAudioCopy v1.0b3
#
DISCID=7c09fe0a
DTITLE=Bananarama - Wow!
DYEAR=1987
DGENRE=Eurodance
TTITLE0=I Can't Help It
TTITLE1=I Heard A Rumour
TTITLE2=Some Girls (12" Version)
TTITLE3=Love In The First Degree
TTITLE4=Once In A Lifetime
TTITLE5=Strike It Rich (12" Version)
TTITLE6=Bad For Me
TTITLE7=Come Back
TTITLE8=Nathan Jones
TTITLE9=I Want You Back
EXTD=
EXTT0=
EXTT1=
EXTT2=
EXTT3=
EXTT4=
EXTT5=
EXTT6=
EXTT7=
EXTT8=
EXTT9=
PLAYORDER=
